<svg xmlns="http://www.w3.org/2000/svg" viewBox="0 0 32 40">
  <g color="#fff" font-weight="400" font-family="sans-serif" white-space="normal">
    <path style="line-height:normal;text-indent:0;text-align:start;text-decoration-line:none;text-decoration-style:solid;text-decoration-color:#fff;text-transform:none;isolation:auto;mix-blend-mode:normal" d="M17.14 10h8.516a10.288 10.288 0 0 1-2.245 5.863z" overflow="visible"/>
    <path style="line-height:normal;text-indent:0;text-align:start;text-decoration-line:none;text-decoration-style:solid;text-decoration-color:#fff;text-transform:none;isolation:auto;mix-blend-mode:normal" d="M26.831 10h1.919c-.278 6.939-5.88 12.499-12.875 12.5C8.881 22.5 3.28 16.944 3 10.006h1.92c.267 5.846 5.081 10.506 10.976 10.495C21.78 20.491 26.568 15.83 26.831 10z" overflow="visible"/>
    <path style="line-height:normal;text-indent:0;text-align:start;text-decoration-line:none;text-decoration-style:solid;text-decoration-color:#fff;text-transform:none;isolation:auto;mix-blend-mode:normal" d="M14.606 10.004L8.34 15.861a10.29 10.29 0 0 1-2.239-5.824zM15.374 10.653v8.825a9.558 9.558 0 0 1-6.372-2.868zM16.376 10.653l6.374 5.958a9.566 9.566 0 0 1-6.374 2.867z" overflow="visible"/>
  </g>
</svg>